PathFileType	4	(x/y/z)	S02_M20_T11
DataRate	CameraRate	NumFrames	NumMarkers	Units	OrigDataRate	OrigDataStartFrame	OrigNumFrames
240	240	5	51	mm	240	292	466
Frame#	Time	Sternum			R.Acromium			L.Acromium			Top.Head			R.ASIS			L.ASIS			R.PSIS			L.PSIS			R.Great.Tro			L.Great.Tro			R.Iliac.Crest			L.Iliac.Crest			V.Sacral			R.Thigh.Upper.Post			R.Thigh.Lower.Ant			R.Thigh.Lower.Post			R.Thigh.Upper.Ant			R.Knee.Lat			R.Knee.Med			R.Shank.Upper.Post			R.Shank.Lower.Ant			R.Shank.Lower.Post			R.Shank.Upper.Ant			R.Ankle.Lat			R.Ankle.Med			R.Heel.Upper			R.Heel.Med			R.Heel.Lat			R.Toe.Lat			R.Toe.Med			R.Toe.Tip			L.Thigh.Upper.Post			L.Thigh.Lower.Ant			L.Thigh.Lower.Post			L.Thigh.Upper.Ant			L.Knee.Lat			L.Knee.Med			L.Shank.Upper.Post			L.Shank.Lower.Ant			L.Shank.Lower.Post			L.Shank.Upper.Ant			L.Ankle.Lat			L.Ankle.Med			L.Heel.Upper			L.Heel.Med			L.Heel.Lat			L.Toe.Lat			L.Toe.Med			L.Toe.Tip			Cervical.Spine			Back			
		X1	Y1	Z1	X2	Y2	Z2	X3	Y3	Z3	X4	Y4	Z4	X5	Y5	Z5	X6	Y6	Z6	X7	Y7	Z7	X8	Y8	Z8	X9	Y9	Z9	X10	Y10	Z10	X11	Y11	Z11	X12	Y12	Z12	X13	Y13	Z13	X14	Y14	Z14	X15	Y15	Z15	X16	Y16	Z16	X17	Y17	Z17	X18	Y18	Z18	X19	Y19	Z19	X20	Y20	Z20	X21	Y21	Z21	X22	Y22	Z22	X23	Y23	Z23	X24	Y24	Z24	X25	Y25	Z25	X26	Y26	Z26	X27	Y27	Z27	X28	Y28	Z28	X29	Y29	Z29	X30	Y30	Z30	X31	Y31	Z31	X32	Y32	Z32	X33	Y33	Z33	X34	Y34	Z34	X35	Y35	Z35	X36	Y36	Z36	X37	Y37	Z37	X38	Y38	Z38	X39	Y39	Z39	X40	Y40	Z40	X41	Y41	Z41	X42	Y42	Z42	X43	Y43	Z43	X44	Y44	Z44	X45	Y45	Z45	X46	Y46	Z46	X47	Y47	Z47	X48	Y48	Z48	X49	Y49	Z49	X50	Y50	Z50	X51	Y51	Z51	

292	1.2125	15.596	1051.8	284.48	-71.22	1286.3	426.23	-103.06	1296.4	138.66	-27.963	1571.6	282.94	-29.278	879.24	409.49	16.029	876.04	195.74	-225.86	926.72	308.57	-213.96	930.47	235.31	-135.18	775.23	481.77	-80.093	783.85	87.814	-140.09	927.81	445.59	-98.207	926.16	108.53	-249.79	887.55	258.82	-191.22	581.96	455.42	-166.4	490.08	415.62	-236.29	506.27	430.29	-125.71	566.85	438.3	-248.88	426.91	410.66	-260.82	422.03	267.63	-411.8	274.31	391.87	-381.12	169.84	366.32	-438.64	205.78	378.42	-352.38	231.04	386.27	-466.47	113.69	360.53	-459.53	126.98	278.62	-534.7	111.64	307.66	-529.37	77.43	280.04	-535.62	80.204	343.79	-379.88	38.637	379.36	-353.24	31.775	270.55	-300.61	52.851	322.79	-2.0891	564.25	111.86	102.43	533.49	127.83	39.497	486.47	137.24	51.312	610.54	102.93	124.3	456.37	137.36	116.25	450.24	279.79	130.45	266.63	141.56	235.11	227.59	150.39	166.66	202.7	157.4	191.85	288.85	135.72	257.39	115.47	162.51	269.69	123.64	245.56	224.64	56.032	203.24	246.38	43.393	240.18	245.51	30.83	179.55	389.14	108.09	140.33	398.91	143.4	243.86	438.93	185.41	192.34	-161.06	1352	295.09	-247.31	1103.1	301.17
293	1.2167	21.751	1050.8	284.09	-65.273	1285.4	425.31	-96.907	1295.2	137.77	-21.985	1570.6	281.54	-23.391	878.15	409.41	22.388	875.12	195.59	-219.76	925.77	308.15	-207.86	929.56	234.93	-129.75	774.23	481.39	-73.479	783.34	87.47	-134.25	926.71	445.29	-91.964	925.14	108.27	-243.68	886.66	258.34	-186.06	581.13	455	-161.34	489.14	415.46	-231.24	505.54	429.91	-120.52	565.84	438.19	-243.99	426.17	410.42	-255.63	421.21	267.34	-408.46	275.33	391.77	-379.16	170.48	366.38	-436.14	207.1	378.42	-349.67	231.41	386.2	-465.07	115.3	360.81	-458.11	128.47	278.82	-533.25	114.13	307.97	-528.38	79.968	280.24	-534.61	82.614	343.99	-379.55	38.728	379.5	-353.17	31.787	270.59	-300.52	52.646	322.73	4.7458	563.55	111.87	109.32	533.03	127.93	46.483	485.9	137.43	58.055	609.92	102.84	131.18	455.79	137.58	123.49	450.06	279.92	135.51	265.91	141.67	239.66	225.67	151.05	170.92	201.53	157.57	197.17	287.43	136.22	260.54	113.6	163	272.66	121.28	246.19	226.93	54.98	203.54	248.27	41.802	240.43	247.36	29.597	179.74	392.13	104.67	141.19	402.06	139.42	244.87	442.79	181.02	193.62	-155.11	1351	294.06	-241.2	1102.1	300.62
294	1.2208	27.975	1049.9	283.71	-59.311	1284.7	424.39	-90.71	1294	136.85	-15.986	1569.7	280.12	-17.417	877.1	409.3	28.8	874.25	195.42	-213.57	924.88	307.75	-201.69	928.71	234.55	-124.23	773.24	481	-66.799	782.87	87.127	-128.3	925.67	445.01	-85.655	924.19	108	-237.49	885.83	257.86	-180.79	580.31	454.57	-156.17	488.22	415.29	-226.06	504.81	429.53	-115.23	564.85	438.07	-238.97	425.45	410.2	-250.33	420.39	267.06	-405.01	276.4	391.67	-377.12	171.17	366.47	-433.53	208.49	378.44	-346.84	231.81	386.16	-463.56	116.98	361.11	-456.57	130.03	279.04	-531.68	116.75	308.3	-527.3	82.646	280.45	-533.51	85.157	344.21	-379.19	38.832	379.65	-353.11	31.806	270.63	-300.45	52.444	322.67	11.528	562.86	111.88	116.14	532.54	128.03	53.376	485.33	137.63	64.766	609.28	102.75	137.99	455.19	137.81	130.61	449.84	280.03	140.47	265.18	141.78	244.09	223.74	151.72	175.06	200.37	157.74	202.4	286.01	136.73	263.53	111.76	163.5	275.48	118.93	246.83	229.02	54.068	203.84	249.92	40.305	240.67	248.96	28.494	179.91	394.91	101.17	142.04	405.05	135.32	245.88	446.53	176.46	194.9	-149.13	1350	292.99	-235.03	1101.1	300.04
295	1.225	34.269	1049	283.31	-53.332	1284	423.45	-84.465	1292.9	135.91	-9.9663	1568.8	278.69	-11.355	876.09	409.16	35.261	873.45	195.24	-207.29	924.04	307.37	-195.44	927.92	234.17	-118.62	772.28	480.6	-60.052	782.43	86.784	-122.23	924.68	444.73	-79.279	923.3	107.7	-231.22	885.06	257.4	-175.41	579.5	454.12	-150.88	487.32	415.12	-220.77	504.09	429.16	-109.82	563.88	437.94	-233.82	424.73	409.98	-244.91	419.57	266.79	-401.44	277.51	391.57	-374.98	171.92	366.59	-430.8	209.95	378.46	-343.91	232.26	386.14	-461.94	118.73	361.41	-454.89	131.66	279.28	-529.97	119.49	308.65	-526.1	85.464	280.67	-532.3	87.836	344.44	-378.81	38.95	379.82	-353.05	31.834	270.68	-300.38	52.245	322.61	18.254	562.19	111.92	122.89	532.01	128.13	60.172	484.76	137.86	71.447	608.62	102.66	144.71	454.58	138.03	137.59	449.59	280.11	145.35	264.47	141.9	248.42	221.83	152.42	179.1	199.24	157.91	207.53	284.6	137.27	266.4	109.97	164	278.19	116.6	247.48	230.94	53.318	204.15	251.37	38.929	240.89	250.34	27.544	180.07	397.53	97.621	142.87	407.92	131.12	246.87	450.17	171.75	196.17	-143.13	1349.1	291.9	-228.8	1100.1	299.44
296	1.2292	40.629	1048.2	282.91	-47.335	1283.4	422.5	-78.174	1291.8	134.95	-3.9273	1568	277.24	-5.2073	875.13	408.99	41.77	872.7	195.04	-200.94	923.26	306.99	-189.11	927.2	233.81	-112.92	771.33	480.19	-53.237	782.02	86.44	-116.05	923.75	444.46	-72.831	922.48	107.38	-224.88	884.35	256.95	-169.92	578.7	453.67	-145.45	486.43	414.95	-215.34	503.38	428.78	-104.29	562.93	437.81	-228.54	424.01	409.79	-239.35	418.74	266.55	-397.75	278.68	391.49	-372.74	172.73	366.74	-427.96	211.46	378.51	-340.86	232.74	386.16	-460.2	120.55	361.72	-453.05	133.35	279.55	-528.1	122.35	309.01	-524.79	88.423	280.9	-530.97	90.651	344.68	-378.39	39.085	380	-353	31.873	270.75	-300.31	52.05	322.54	24.923	561.55	111.95	129.57	531.44	128.23	66.866	484.19	138.09	78.097	607.97	102.56	151.33	453.95	138.26	144.42	449.3	280.17	150.15	263.79	142.03	252.66	219.94	153.12	183.08	198.13	158.1	212.58	283.22	137.81	269.17	108.25	164.51	280.81	114.33	248.14	232.73	52.745	204.46	252.65	37.693	241.11	251.53	26.766	180.22	399.99	94.04	143.67	410.68	126.84	247.85	453.74	166.91	197.43	-137.1	1348.3	290.77	-222.5	1099.2	298.82
